<?xml version="1.0" encoding="UTF-8"?>
<svg width="800" height="400" viewBox="0 0 800 400" xmlns="http://www.w3.org/2000/svg">
  <defs>
    <linearGradient id="bgGradient" x1="0%" y1="0%" x2="100%" y2="100%">
      <stop offset="0%" stop-color="#2196f3" stop-opacity="0.8" />
      <stop offset="100%" stop-color="#1565c0" stop-opacity="0.9" />
    </linearGradient>
    <filter id="shadow" x="-20%" y="-20%" width="140%" height="140%">
      <feDropShadow dx="2" dy="2" stdDeviation="5" flood-color="#000" flood-opacity="0.3" />
    </filter>
  </defs>
  
  <rect width="800" height="400" rx="15" fill="url(#bgGradient)" />
  
  <circle cx="100" cy="80" r="60" fill="#ffffff" fill-opacity="0.1" />
  <circle cx="700" cy="320" r="80" fill="#ffffff" fill-opacity="0.1" />
  <circle cx="200" cy="350" r="40" fill="#ffffff" fill-opacity="0.05" />
  <circle cx="600" cy="100" r="50" fill="#ffffff" fill-opacity="0.05" />
  
  <rect x="250" y="100" width="300" height="4" rx="2" fill="#ffffff" fill-opacity="0.7" />
  <rect x="250" y="120" width="250" height="4" rx="2" fill="#ffffff" fill-opacity="0.6" />
  <rect x="250" y="140" width="280" height="4" rx="2" fill="#ffffff" fill-opacity="0.5" />
  <rect x="250" y="160" width="200" height="4" rx="2" fill="#ffffff" fill-opacity="0.4" />
  <rect x="250" y="180" width="270" height="4" rx="2" fill="#ffffff" fill-opacity="0.6" />
  <rect x="250" y="200" width="230" height="4" rx="2" fill="#ffffff" fill-opacity="0.5" />
  
  <g transform="translate(120, 200)" filter="url(#shadow)">
    <rect x="0" y="0" width="80" height="100" rx="5" fill="#ffffff" />
    <rect x="10" y="20" width="60" height="3" rx="1.5" fill="#2196f3" />
    <rect x="10" y="30" width="50" height="3" rx="1.5" fill="#2196f3" />
    <rect x="10" y="40" width="55" height="3" rx="1.5" fill="#2196f3" />
    <rect x="10" y="50" width="40" height="3" rx="1.5" fill="#2196f3" />
    <rect x="10" y="60" width="60" height="3" rx="1.5" fill="#2196f3" />
    <rect x="10" y="70" width="45" height="3" rx="1.5" fill="#2196f3" />
  </g>
  
  <g transform="translate(650, 200) rotate(-45)" filter="url(#shadow)">
    <rect x="0" y="0" width="15" height="80" rx="2" fill="#FFC107" />
    <polygon points="0,0 15,0 15,15 0,15" fill="#E91E63" />
    <polygon points="0,80 15,80 7.5,95" fill="#424242" />
  </g>
  
  <text x="400" y="300" font-family="Arial, sans-serif" font-size="40" font-weight="bold" text-anchor="middle" fill="#ffffff" filter="url(#shadow)">
    TCF CANADA
  </text>
  
  <text x="400" y="340" font-family="Arial, sans-serif" font-size="24" font-weight="normal" text-anchor="middle" fill="#ffffff" filter="url(#shadow)">
    Expression Écrite
  </text>
</svg>